<svg xmlns="http://www.w3.org/2000/svg" viewBox="0 0 96 96" role="img" aria-labelledby="title desc">
  <title id="title">Weather icon</title>
  <desc id="desc">A sun partly covered by a cloud, representing weather.</desc>

  <circle cx="34" cy="34" r="16" fill="#fbbf24"/>

  <g stroke="#fbbf24" stroke-width="5" stroke-linecap="round">
    <line x1="34" y1="6" x2="34" y2="16"/>
    <line x1="34" y1="52" x2="34" y2="62"/>
    <line x1="6" y1="34" x2="16" y2="34"/>
    <line x1="52" y1="34" x2="62" y2="34"/>
    <line x1="14" y1="14" x2="21" y2="21"/>
    <line x1="47" y1="47" x2="54" y2="54"/>
    <line x1="14" y1="54" x2="21" y2="47"/>
    <line x1="47" y1="21" x2="54" y2="14"/>
  </g>

  <path
    d="M30 72h39c10 0 18-8 18-18s-8-18-18-18c-2 0-4 .3-6 1a23 23 0 0 0-43 10c-8 1-14 7-14 15 0 6 5 10 24 10z"
    fill="#e5e7eb"
    stroke="#64748b"
    stroke-width="4"
    stroke-linejoin="round"
  />

  <path
    d="M23 59c2-5 7-8 13-8 1 0 3 0 4 .4 4-7 11-11 19-11"
    fill="none"
    stroke="#ffffff"
    stroke-width="4"
    stroke-linecap="round"
    opacity=".75"
  />
</svg>
